<svg width="1800" height="1800" viewBox="0 0 1800 1800" fill="none" xmlns="http://www.w3.org/2000/svg">
<g clip-path="url(#clip0_343_689)">
<rect width="1800" height="1800" fill="#274DBC"/>
<path d="M0.294922 1635.02H42.5025V1663.8C57.8508 1640.3 83.7509 1628.79 114.927 1628.79C143.225 1628.79 165.288 1637.9 181.596 1656.6C198.383 1675.31 206.537 1699.29 206.537 1728.55V1860.93H162.411V1732.39C162.411 1695.45 139.868 1670.51 103.416 1670.51C66.9638 1670.51 44.4211 1695.45 44.4211 1732.39V1860.93H0.294922V1635.02Z" fill="white"/>
<path d="M442.264 1764.04H262.882C268.638 1801.93 294.058 1826.87 331.949 1826.87C361.207 1826.87 385.188 1813.44 398.618 1788.98L436.989 1806.25C418.283 1845.1 379.912 1867.16 331.949 1867.16C262.882 1867.16 217.317 1815.36 217.317 1747.73C217.317 1680.11 262.882 1628.79 331.949 1628.79C401.016 1628.79 443.703 1680.11 443.703 1747.25C443.703 1752.53 443.224 1758.29 442.264 1764.04ZM263.841 1728.07H397.659C391.903 1691.62 368.881 1668.6 331.949 1668.6C295.497 1668.6 270.077 1693.06 263.841 1728.07Z" fill="white"/>
<path d="M446.042 1813.44L483.933 1795.7C492.086 1816.8 511.272 1828.31 536.212 1828.31C559.235 1828.31 577.94 1817.76 577.94 1798.58C577.94 1782.75 566.429 1771.72 543.886 1765L516.547 1757.33C476.738 1745.34 457.073 1723.75 457.073 1692.58C457.073 1653.73 494.964 1629.27 535.253 1629.27C570.266 1629.27 598.565 1643.65 610.555 1670.99L572.664 1688.26C566.429 1674.83 553.959 1668.12 535.253 1668.12C517.507 1668.12 503.118 1676.27 503.118 1691.62C503.118 1705.53 514.629 1712.72 532.375 1718L557.316 1725.19C598.085 1736.22 623.505 1760.2 623.505 1796.66C623.505 1840.3 582.737 1867.16 536.212 1867.16C491.607 1867.16 456.114 1846.54 446.042 1813.44Z" fill="white"/>
<path d="M629.546 1747.25C629.546 1681.55 674.152 1628.79 739.381 1628.79C773.435 1628.79 803.173 1642.22 822.358 1668.6V1635.02H866.484V1860.93H822.358V1827.35C802.693 1853.73 773.915 1867.16 739.381 1867.16C674.152 1867.16 629.546 1814.4 629.546 1747.25ZM819.96 1747.73C819.96 1703.13 792.141 1669.55 747.535 1669.55C724.992 1669.55 707.246 1677.23 694.296 1692.1C681.346 1706.97 675.111 1725.67 675.111 1747.73C675.111 1792.34 702.929 1825.91 747.535 1825.91C793.1 1825.91 819.96 1793.3 819.96 1747.73Z" fill="white"/>
<path d="M883.53 1860.93V1635.02H923.819V1665.72C938.208 1642.22 961.71 1630.22 994.325 1630.22C1026.94 1630.22 1052.84 1645.09 1066.75 1672.43C1080.66 1644.13 1108.48 1630.22 1144.45 1630.22C1197.69 1630.22 1233.18 1670.99 1233.18 1727.11V1860.93H1189.06V1733.83C1189.06 1696.89 1168.91 1671.95 1134.38 1671.95C1101.28 1671.95 1080.18 1696.89 1080.18 1733.83V1860.93H1036.05V1733.83C1036.05 1696.89 1015.91 1671.95 981.854 1671.95C947.8 1671.95 927.656 1696.89 927.656 1733.83V1860.93H883.53Z" fill="white"/>
<path d="M1243.4 1747.25C1243.4 1681.55 1292.8 1628.79 1363.79 1628.79C1434.77 1628.79 1484.17 1681.55 1484.17 1747.25C1484.17 1814.88 1434.77 1867.16 1363.79 1867.16C1292.8 1867.16 1243.4 1814.88 1243.4 1747.25ZM1439.57 1747.25C1439.57 1724.71 1432.37 1706.49 1418.47 1691.62C1404.56 1676.75 1386.33 1669.55 1363.79 1669.55C1341.24 1669.55 1323.02 1676.75 1309.11 1691.62C1295.2 1706.49 1288.49 1724.71 1288.49 1747.25C1288.49 1769.8 1295.2 1788.98 1309.11 1803.85C1323.02 1818.72 1341.24 1825.91 1363.79 1825.91C1409.83 1825.91 1439.57 1793.3 1439.57 1747.25Z" fill="white"/>
<path d="M1470.99 1635.02H1520.87L1594.73 1786.58L1668.11 1635.02H1718L1603.84 1862.37H1584.18L1470.99 1635.02Z" fill="white"/>
<path d="M1896.47 1635.02H1944.91L1812.06 1956.85H1766.49L1803.42 1865.24L1700.78 1635.02H1749.22L1825.96 1810.09L1896.47 1635.02ZM1801.98 1595.69L1828.84 1526.14H1888.8L1836.04 1595.69H1801.98Z" fill="white"/>
<path d="M2027.47 1557.8V1635.02H2102.78V1675.31H2027.47V1860.93H1983.35V1675.31H1937.3L2008.29 1557.8H2027.47Z" fill="white"/>
<path d="M2094.22 1747.25C2094.22 1681.55 2143.62 1628.79 2214.61 1628.79C2285.59 1628.79 2335 1681.55 2335 1747.25C2335 1814.88 2285.59 1867.16 2214.61 1867.16C2143.62 1867.16 2094.22 1814.88 2094.22 1747.25ZM2290.39 1747.25C2290.39 1724.71 2283.2 1706.49 2269.29 1691.62C2255.38 1676.75 2237.15 1669.55 2214.61 1669.55C2192.07 1669.55 2173.84 1676.75 2159.93 1691.62C2146.02 1706.49 2139.31 1724.71 2139.31 1747.25C2139.31 1769.8 2146.02 1788.98 2159.93 1803.85C2173.84 1818.72 2192.07 1825.91 2214.61 1825.91C2260.65 1825.91 2290.39 1793.3 2290.39 1747.25Z" fill="white"/>
<mask id="mask0_343_689" style="mask-type:alpha" maskUnits="userSpaceOnUse" x="471" y="0" width="1393" height="1393">
<circle cx="1167.86" cy="696.306" r="695.974" fill="white"/>
</mask>
<g mask="url(#mask0_343_689)">
<circle cx="1167.86" cy="696.306" r="695.974" fill="#FFFCF2"/>
<path d="M129.387 1172.5C542.189 1172.5 901.828 595.572 1181.08 595.572C1460.33 595.572 1835.23 1172.5 2175.18 1172.5" stroke="#274DBC" stroke-width="61.3286"/>
<path d="M433.553 1401.44C887.736 1401.44 1028 1007.66 1188.3 1007.66C1348.6 1007.66 1475.5 1401.44 2003.16 1401.44" stroke="#274DBC" stroke-width="61.3286"/>
</g>
</g>
<defs>
<clipPath id="clip0_343_689">
<rect width="1800" height="1800" fill="white"/>
</clipPath>
</defs>
</svg>
